<svg xmlns="http://www.w3.org/2000/svg" viewBox="0 0 24 24">
  <path fill="#25D366" d="M20.52 3.48A11.83 11.83 0 0 0 12.02 0 12 12 0 0 0 .02 12c0 2.1.55 4.1 1.6 5.9L0 24l6.22-1.62a12 12 0 0 0 5.8 1.49h.01c6.62 0 12-5.38 12-12 0-3.2-1.25-6.2-3.51-8.39Zm-8.49 17.82h-.01c-1.88 0-3.72-.5-5.33-1.46l-.38-.22-3.69.96.98-3.6-.25-.38A9.24 9.24 0 0 1 2.77 12 9.26 9.26 0 0 1 12.02 2.74a9.05 9.05 0 0 1 6.42 2.66 9.05 9.05 0 0 1 2.64 6.42c0 5.06-4.21 9.48-9.06 9.48Zm5.25-7.16c-.29-.14-1.7-.83-1.96-.92-.26-.1-.45-.14-.63.14-.18.29-.72.92-.88 1.11-.16.19-.33.21-.62.07-.29-.14-1.23-.45-2.34-1.43-.86-.74-1.44-1.66-1.6-1.95-.17-.29-.02-.45.12-.59.12-.11.29-.3.43-.45.14-.15.19-.25.29-.42.1-.19.05-.35-.02-.5-.07-.14-.63-1.52-.87-2.09-.23-.55-.47-.47-.63-.48l-.54-.01c-.19 0-.5.07-.76.35-.26.29-.99.97-.99 2.37 0 1.39 1.02 2.74 1.17 2.93.14.19 2 3.23 4.86 4.52.68.29 1.21.46 1.63.58.68.22 1.3.19 1.79.12.55-.08 1.7-.69 1.94-1.36.24-.67.24-1.24.17-1.36-.07-.12-.26-.19-.55-.33Z"/>
</svg>
